<svg width="66" height="70" viewBox="0 0 66 70" fill="none" xmlns="http://www.w3.org/2000/svg">
<rect width="65.6822" height="70" rx="10" fill="#72FF66"/>
<path d="M14.4492 50.358H18.0494M18.0494 50.358H36.0505M18.0494 50.358V25.3082C18.0494 23.2749 18.0494 22.2575 18.4418 21.4809C18.787 20.7978 19.3374 20.2428 20.0148 19.8948C20.7849 19.4991 21.7938 19.4991 23.8101 19.4991H30.2905C32.3068 19.4991 33.3136 19.4991 34.0837 19.8948C34.7611 20.2428 35.3133 20.7978 35.6585 21.4809C36.0505 22.2568 36.0505 23.2729 36.0505 25.3022V35.8362M36.0505 50.358H46.8512M36.0505 50.358V35.8362M46.8512 50.358H50.4514M46.8512 50.358V35.8362C46.8512 34.1446 46.851 33.2992 46.5769 32.632C46.2115 31.7425 45.5113 31.0353 44.6292 30.6668C43.9675 30.3905 43.1279 30.3905 41.4504 30.3905C39.7729 30.3905 38.9341 30.3905 38.2725 30.6668C37.3904 31.0353 36.69 31.7425 36.3246 32.632C36.0505 33.2992 36.0505 34.1446 36.0505 35.8362M23.4498 32.2057H30.6502M23.4498 26.76H30.6502" stroke="white" stroke-width="3" stroke-linecap="round" stroke-linejoin="round"/>
</svg>
