<svg width="71" height="70" viewBox="0 0 71 70" fill="none" xmlns="http://www.w3.org/2000/svg">
<rect width="70.6542" height="70" rx="10" fill="#FF5B5B"/>
<path d="M21.2627 38.8939V41.7643C21.2627 43.5508 21.2627 44.4434 21.6061 45.1257C21.9081 45.7259 22.3897 46.2149 22.9825 46.5207C23.6557 46.868 24.5375 46.868 26.2984 46.868H49.6165M21.2627 38.8939V22.9445M21.2627 38.8939L27.3325 33.7724L27.3376 33.7683C28.4356 32.8418 28.9857 32.3777 29.5822 32.1892C30.2868 31.9664 31.0458 32.0017 31.7276 32.2881C32.3056 32.5308 32.8124 33.044 33.8261 34.0703L33.8362 34.0806C34.8656 35.1229 35.3817 35.6454 35.969 35.8877C36.6639 36.1743 37.4376 36.199 38.1499 35.9598C38.7538 35.757 39.3053 35.2692 40.4081 34.2922L49.6161 26.1343" stroke="white" stroke-width="3" stroke-linecap="round" stroke-linejoin="round"/>
</svg>
