<svg width="66" height="70" viewBox="0 0 66 70" fill="none" xmlns="http://www.w3.org/2000/svg">
<rect width="65.6822" height="70" rx="10" fill="#0087FF"/>
<path d="M27.0031 29.25H24.3761C22.7412 29.25 21.9231 29.25 21.2987 29.5906C20.7494 29.8902 20.3031 30.3679 20.0233 30.9559C19.7051 31.6244 19.7051 32.5001 19.7051 34.2503V43.0003C19.7051 44.7505 19.7051 45.6251 20.0233 46.2936C20.3031 46.8816 20.7494 47.3601 21.2987 47.6597C21.9225 48 22.7396 48 24.3713 48H41.3117C42.9435 48 43.7594 48 44.3832 47.6597C44.9325 47.3601 45.3802 46.8816 45.6601 46.2936C45.978 45.6257 45.978 44.7523 45.978 43.0056V34.2452C45.978 32.4984 45.978 31.6238 45.6601 30.9559C45.3802 30.3679 44.9325 29.8902 44.3832 29.5906C43.7587 29.25 42.9424 29.25 41.3075 29.25H38.6799M27.0031 29.25H38.6799M27.0031 29.25C27.0031 25.7982 29.6171 23 32.8415 23C36.066 23 38.6799 25.7982 38.6799 29.25" stroke="white" stroke-width="3" stroke-linecap="round" stroke-linejoin="round"/>
</svg>
