<svg width="66" height="70" viewBox="0 0 66 70" fill="none" xmlns="http://www.w3.org/2000/svg">
<rect width="65.6822" height="70" rx="10" fill="#FF9D60"/>
<path d="M36.5446 42.9838V44.4212C36.5446 46.8029 34.6414 48.7336 32.2938 48.7336C29.9461 48.7336 28.043 46.8029 28.043 44.4212V42.9838M36.5446 42.9838H28.043M36.5446 42.9838H41.6321C42.1741 42.9838 42.4464 42.9838 42.6659 42.9087C43.0851 42.7652 43.4131 42.4313 43.5545 42.006C43.6288 41.7824 43.6288 41.5053 43.6288 40.9511C43.6288 40.7086 43.6286 40.5873 43.6099 40.4717C43.5745 40.2532 43.4909 40.0461 43.3636 39.8662C43.2964 39.7712 43.2109 39.6844 43.0424 39.5135L42.4904 38.9535C42.3124 38.7729 42.2123 38.5278 42.2123 38.2723V32.9215C42.2123 27.3642 37.7716 22.8592 32.2938 22.8592C26.8159 22.8592 22.3753 27.3643 22.3753 32.9215V38.2724C22.3753 38.5279 22.275 38.7729 22.0969 38.9535L21.545 39.5134C21.376 39.6849 21.2914 39.7711 21.224 39.8663C21.0967 40.0461 21.0124 40.2532 20.977 40.4717C20.9583 40.5873 20.9583 40.7086 20.9583 40.9511C20.9583 41.5053 20.9583 41.7824 21.0326 42.0059C21.174 42.4312 21.5036 42.7652 21.9228 42.9087C22.1423 42.9838 22.4135 42.9838 22.9556 42.9838H28.043M40.8217 21.4414C42.7759 22.9354 44.3155 24.9173 45.2904 27.1942M23.7666 21.4414C21.8124 22.9354 20.2728 24.9173 19.2979 27.1942" stroke="white" stroke-width="3" stroke-linecap="round" stroke-linejoin="round"/>
</svg>
